<?xml version="1.0" encoding="UTF-8" standalone="no"?>
<!-- Created with Inkscape (http://www.inkscape.org/) -->
<svg xmlns:dc="http://purl.org/dc/elements/1.1/" xmlns:cc="http://creativecommons.org/ns#" xmlns:rdf="http://www.w3.org/1999/02/22-rdf-syntax-ns#" xmlns:svg="http://www.w3.org/2000/svg" xmlns="http://www.w3.org/2000/svg" xmlns:sodipodi="http://sodipodi.sourceforge.net/DTD/sodipodi-0.dtd" xmlns:inkscape="http://www.inkscape.org/namespaces/inkscape" width="744.09448819" height="1052.3622047" id="svg4052" version="1.1" inkscape:version="0.48.4 r9939" sodipodi:docname="carimbo_alex.pdf">
  <defs id="defs4054"/>
  <sodipodi:namedview id="base" pagecolor="#ffffff" bordercolor="#666666" borderopacity="1.0" inkscape:pageopacity="0.0" inkscape:pageshadow="2" inkscape:zoom="0.175" inkscape:cx="466.08688" inkscape:cy="498.01483" inkscape:document-units="px" inkscape:current-layer="layer1" showgrid="false" inkscape:window-width="1920" inkscape:window-height="1051" inkscape:window-x="-9" inkscape:window-y="-9" inkscape:window-maximized="1"/>
  <metadata id="metadata4057">
    <rdf:RDF>
      <cc:Work rdf:about="">
        <dc:format>image/svg+xml</dc:format>
        <dc:type rdf:resource="http://purl.org/dc/dcmitype/StillImage"/>
        <dc:title/>
      </cc:Work>
    </rdf:RDF>
  </metadata>
  <g inkscape:label="Layer 1" inkscape:groupmode="layer" id="layer1">
    <path style="fill:#1eb5e2;fill-opacity:1;stroke:none;display:inline" d="m 197.65382,363.66242 c -0.0935,-0.0104 -0.0957,0.0531 -0.11355,0.11355 -0.28771,0.97052 9.04636,11.35938 26.25738,31.25879 l 10.00282,10.68482 -5.22875,7.95678 c 6.661,7.87748 12.56476,15.46199 23.52934,24.43868 l 5.91075,-2.84171 57.51616,58.4255 c -1.21893,-6.4694 -1.20852,-12.98698 2.50071,-19.55094 l -49.44573,-50.69605 2.15971,-5.34241 c -10.4155,-14.32127 -17.06719,-19.25524 -23.643,-24.09769 l -6.93378,4.88773 -11.02581,-9.54813 c -20.07391,-17.0079 -30.08315,-25.49897 -31.48613,-25.68904 z m 250.52494,223.69923 c -0.69366,3.9837 -1.54408,7.88814 -2.84172,11.36682 -4.92869,16.12773 -7.23417,28.41628 -9.54813,38.76089 11.18641,12.7606 22.837,24.94866 36.2602,34.89618 8.55102,2.71231 16.43025,3.54859 23.30199,1.13667 l 22.96099,22.50633 c 13.02096,8.76093 25.97671,12.76685 38.98823,13.29919 0.6882,-2.38344 1.42266,-4.73901 2.27337,-7.04743 -12.9093,0.1855 -25.29561,-3.69399 -34.66883,-15.7999 l -21.82433,-22.39265 c 0.92383,-7.29522 3.54482,-14.25389 -0.79566,-22.61999 -13.92758,-20.26464 -33.6216,-35.75132 -54.10611,-54.10611 z" id="path3041-0-7-1-8-1" inkscape:connector-curvature="0"/>
    <path inkscape:connector-curvature="0" style="fill:#1eb5e2;fill-opacity:1;stroke:none;display:inline" d="m 518.91943,355.55633 c -27.97644,1.21045 -59.65578,16.27724 -59.22118,54.10612 0.55289,4.10424 1.29029,8.15967 3.63739,11.36683 l -38.7609,38.53356 c 2.24565,4.07127 3.7412,8.05225 3.86472,11.82149 0.78412,3.12077 0.81438,6.11139 -0.11355,8.97979 0.85632,2.89132 1.89271,5.4984 2.15971,9.20715 0.75232,2.9611 1.02152,6.51389 0,11.93516 1.10071,2.61583 2.20901,5.25006 2.95537,8.07045 l 59.33485,-60.01687 c 3.86611,2.46305 7.61557,4.0218 11.02583,4.20574 41.493,-5.17473 53.36424,-40.70002 53.19676,-69.67868 l -31.94078,31.94081 -30.57677,-30.57678 30.00843,-29.89477 c -1.82121,-0.04 -3.70465,-0.0807 -5.56976,0 z m -222.33519,231.42866 -33.64582,33.41849 c -5.05305,-3.33652 -7.51706,-2.90147 -10.91216,-3.75106 -41.49301,5.17473 -53.47786,40.70001 -53.31043,69.67867 l 31.94079,-31.94079 30.57678,30.46309 -30.00845,30.12212 c 29.13941,0.6406 65.25449,-13.869 64.79095,-54.21978 -0.53488,-3.00853 -0.78292,-5.99377 -2.61438,-9.43447 l 17.39125,-17.50493 c -3.49774,-12.81524 -7.07336,-26.45002 -12.1625,-39.4429 -0.56071,-1.66083 -1.21358,-4.38462 -2.04603,-7.38844 z" id="path3043-5-0-4-2-4"/>
    <g id="g16827-9-5-9" transform="matrix(2.4007729,0,0,2.4007729,377.85714,535.21932)" inkscape:label="Gear20" style="stroke:#1eb5e2;stroke-width:4.03454065;stroke-miterlimit:4;stroke-opacity:1;stroke-dasharray:none;display:inline" inkscape:export-filename="c:\Users\aporto\Desktop\carimbo.png" inkscape:export-xdpi="92.870003" inkscape:export-ydpi="92.870003">
      <path id="path16829-4-5-4" d="m 108.225,-8.713 10.199,-0.821 1.844,0.069 12.304,3.567 0,11.796 -12.304,3.567 -1.844,0.069 -10.199,-0.821 -2.604,16.444 9.953,2.371 1.732,0.635 10.6,7.195 -3.645,11.218 -12.805,-0.409 -1.775,-0.505 -9.445,-3.932 -7.559,14.834 8.734,5.33 1.451,1.14 7.858,10.119 -6.933,9.542 -12.052,-4.346 -1.532,-1.028 -7.768,-6.659 -11.773,11.773 6.659,7.768 1.028,1.532 4.346,12.052 -9.542,6.933 -10.119,-7.858 -1.14,-1.451 -5.33,-8.734 -14.834,7.559 3.932,9.445 0.505,1.775 0.409,12.805 -11.218,3.645 -7.195,-10.6 -0.635,-1.732 -2.371,-9.953 -16.444,2.604 0.821,10.199 -0.069,1.844 -3.567,12.304 -11.796,0 -3.567,-12.304 -0.069,-1.844 0.821,-10.199 -16.444,-2.604 -2.371,9.953 -0.635,1.732 -7.195,10.6 -11.218,-3.645 0.409,-12.805 0.505,-1.775 3.932,-9.445 -14.834,-7.559 -5.33,8.734 -1.14,1.451 -10.119,7.858 -9.542,-6.933 4.346,-12.052 1.028,-1.532 6.659,-7.768 -11.773,-11.773 -7.768,6.659 -1.532,1.028 -12.052,4.346 -6.933,-9.542 7.858,-10.119 1.451,-1.14 8.734,-5.33 -7.559,-14.834 -9.445,3.932 -1.775,0.505 -12.805,0.409 -3.645,-11.218 10.6,-7.195 1.732,-0.635 9.953,-2.371 -2.604,-16.444 -10.199,0.821 -1.844,-0.069 -12.304,-3.567 0,-11.796 12.304,-3.567 1.844,-0.069 10.199,0.821 2.604,-16.444 -9.953,-2.371 -1.732,-0.635 -10.6,-7.195 3.645,-11.218 12.805,0.409 1.775,0.505 9.445,3.932 7.559,-14.834 -8.734,-5.33 -1.451,-1.14 -7.858,-10.119 6.933,-9.542 12.052,4.346 1.532,1.028 7.768,6.659 11.773,-11.773 -6.659,-7.768 -1.028,-1.532 -4.346,-12.052 9.542,-6.933 10.119,7.858 1.14,1.451 5.33,8.734 14.834,-7.559 -3.932,-9.445 -0.505,-1.775 -0.409,-12.805 11.218,-3.645 7.195,10.6 0.635,1.732 2.371,9.953 16.444,-2.604 -0.821,-10.199 0.069,-1.844 3.567,-12.304 11.796,0 3.567,12.304 0.069,1.844 -0.821,10.199 16.444,2.604 2.371,-9.953 0.635,-1.732 7.195,-10.6 11.218,3.645 -0.409,12.805 -0.505,1.775 -3.932,9.445 14.834,7.559 5.33,-8.734 1.14,-1.451 10.119,-7.858 9.542,6.933 -4.346,12.052 -1.028,1.532 -6.659,7.768 11.773,11.773 7.768,-6.659 1.532,-1.028 12.052,-4.346 6.933,9.542 -7.858,10.119 -1.451,1.14 -8.734,5.33 7.559,14.834 9.445,-3.932 1.775,-0.505 12.805,-0.409 3.645,11.218 -10.6,7.195 -1.732,0.635 -9.953,2.371 z" style="fill:none;stroke:#1eb5e2;stroke-width:4.03454065;stroke-miterlimit:4;stroke-opacity:1;stroke-dasharray:none" inkscape:connector-curvature="0"/>
    </g>
    <path inkscape:export-ydpi="92.870003" inkscape:export-xdpi="92.870003" inkscape:export-filename="c:\Users\aporto\Desktop\carimbo.png" sodipodi:nodetypes="ccccccccccccccccccccccccccccccccccccccccccccccc" inkscape:connector-curvature="0" id="rect3960-0-4-0" d="m 373.23842,367.91733 c -1.67567,-0.61667 -3.34973,0.0222 -3.94393,0.86037 -2.78423,-0.0178 -4.5975,1.01545 -5.824,2.57329 -2.85866,1.53413 -3.84169,4.42565 -3.98482,6.5404 -3.72577,2.61958 -7.23673,6.27321 -9.70668,15.97582 -4.46398,1.72291 -7.27065,7.71285 -7.56098,20.47911 -6.1941,7.72284 -4.15485,11.83828 -4.18919,16.83357 -6.15078,5.65003 -7.98617,12.63169 -6.13052,20.90794 -4.6323,3.84486 -6.31454,11.38886 -5.51748,22.08737 -6.1576,8.12707 -5.80353,16.15276 -4.08702,24.12456 -7.36253,11.104 -3.93845,17.05281 -2.55435,24.01735 -5.46073,5.43972 -3.40288,14.08622 0.4087,23.48123 -1.6574,1.70356 -2.65344,3.89591 -3.0653,6.64763 -22.30205,-29.69938 -34.23884,-21.59312 -41.48316,-4.07434 18.84797,-11.55575 26.77068,32.08436 30.03953,42.2448 13.41273,35.9342 15.40659,77.67271 36.88534,86.95561 4.1452,1.65758 6.65822,6.94109 19.41329,8.47041 0.48642,0.20722 1.0547,0.2451 1.63482,0.10686 1.41998,0.12891 2.82703,0.2901 4.4957,0.32154 l -0.20414,16.19029 10.93276,0.32155 -0.30655,-17.7986 c 10.55394,-0.97179 24.04623,-0.86955 29.22213,-9.97144 23.63805,-23.08654 18.58783,-37.85689 30.85698,-79.98631 7.21668,-20.30154 -1.19169,-51.53979 39.54185,-71.19424 -18.36673,3.985 -33.88624,5.64055 -48.83983,18.76353 0.31255,-2.18924 0.28959,-4.93141 -0.40872,-8.89928 -0.14868,-2.03861 -0.56838,-4.6064 -1.32827,-7.71986 1.00046,-4.37187 0.79879,-8.08953 0,-11.47259 -0.35818,-4.29643 -1.89538,-8.0052 -3.37178,-11.68702 0.91825,-5.11373 0.67626,-8.46497 0,-11.25812 -0.24015,-3.49837 -1.17162,-5.95754 -1.94132,-8.68485 0.83419,-2.70566 0.80685,-5.52664 0.10202,-8.47039 -0.1561,-5.00396 -2.72123,-10.34563 -6.23268,-15.8686 0.45593,-2.84972 0.45318,-5.64459 -0.30655,-8.47038 -0.17552,-3.74945 -1.46651,-7.45775 -4.49574,-11.1509 0.77398,-2.22729 0.7109,-4.44974 0,-6.64764 0.16211,-4.17113 -2.38106,-8.34164 -6.02834,-12.43759 0.0678,-2.46614 -0.27089,-4.36535 -0.71523,-5.89713 -0.31538,-5.90875 -2.58918,-8.01193 -4.59788,-10.82924 -0.0879,-0.65179 -0.17517,-1.28822 -0.30655,-1.92993 -0.43492,-5.58088 -2.16782,-10.88387 -7.0501,-15.43972 -0.22248,-2.65177 -0.76481,-5.24097 -2.45221,-7.50545 -0.50974,-1.49375 -1.43273,-2.95125 -2.86091,-4.28877 -0.44127,-1.95797 -2.40981,-3.17015 -4.61846,-3.13519 -1.27077,-2.60364 -2.82055,-2.19662 -4.67937,-1.99954 -1.27751,-1.47603 -2.49913,-1.68051 -4.74106,-1.08611 z" style="fill:#1eb5e2;fill-opacity:1;fill-rule:nonzero;stroke:none;display:inline"/>
  </g>
</svg>